<?xml version="1.0" encoding="UTF-8"?>
<svg xmlns="http://www.w3.org/2000/svg" width="316" height="36" viewBox="0 0 316 36" role="img" aria-label="Hi ~ I&apos;m Kazuha">
  <title>Hi ~ I'm Kazuha</title>
  <style>
    .char { fill: #0878d4; shape-rendering: crispEdges; }
  </style>
  <g class="char"><rect x="0" y="4" width="4" height="4"/><rect x="16" y="4" width="4" height="4"/><rect x="0" y="8" width="4" height="4"/><rect x="16" y="8" width="4" height="4"/><rect x="0" y="12" width="4" height="4"/><rect x="16" y="12" width="4" height="4"/><rect x="0" y="16" width="4" height="4"/><rect x="4" y="16" width="4" height="4"/><rect x="8" y="16" width="4" height="4"/><rect x="12" y="16" width="4" height="4"/><rect x="16" y="16" width="4" height="4"/><rect x="0" y="20" width="4" height="4"/><rect x="16" y="20" width="4" height="4"/><rect x="0" y="24" width="4" height="4"/><rect x="16" y="24" width="4" height="4"/><rect x="0" y="28" width="4" height="4"/><rect x="16" y="28" width="4" height="4"/></g>
  <g class="char"><rect x="28" y="4" width="4" height="4"/><rect x="24" y="12" width="4" height="4"/><rect x="28" y="12" width="4" height="4"/><rect x="28" y="16" width="4" height="4"/><rect x="28" y="20" width="4" height="4"/><rect x="28" y="24" width="4" height="4"/><rect x="24" y="28" width="4" height="4"/><rect x="28" y="28" width="4" height="4"/><rect x="32" y="28" width="4" height="4"/></g>
  <g class="char"></g>
  <g class="char"><rect x="60" y="12" width="4" height="4"/><rect x="68" y="12" width="4" height="4"/><rect x="56" y="16" width="4" height="4"/><rect x="64" y="16" width="4" height="4"/><rect x="72" y="16" width="4" height="4"/></g>
  <g class="char"></g>
  <g class="char"><rect x="96" y="4" width="4" height="4"/><rect x="100" y="4" width="4" height="4"/><rect x="104" y="4" width="4" height="4"/><rect x="108" y="4" width="4" height="4"/><rect x="112" y="4" width="4" height="4"/><rect x="104" y="8" width="4" height="4"/><rect x="104" y="12" width="4" height="4"/><rect x="104" y="16" width="4" height="4"/><rect x="104" y="20" width="4" height="4"/><rect x="104" y="24" width="4" height="4"/><rect x="96" y="28" width="4" height="4"/><rect x="100" y="28" width="4" height="4"/><rect x="104" y="28" width="4" height="4"/><rect x="108" y="28" width="4" height="4"/><rect x="112" y="28" width="4" height="4"/></g>
  <g class="char"><rect x="120" y="4" width="4" height="4"/><rect x="124" y="4" width="4" height="4"/><rect x="124" y="8" width="4" height="4"/><rect x="120" y="12" width="4" height="4"/></g>
  <g class="char"><rect x="132" y="12" width="4" height="4"/><rect x="136" y="12" width="4" height="4"/><rect x="144" y="12" width="4" height="4"/><rect x="132" y="16" width="4" height="4"/><rect x="140" y="16" width="4" height="4"/><rect x="148" y="16" width="4" height="4"/><rect x="132" y="20" width="4" height="4"/><rect x="140" y="20" width="4" height="4"/><rect x="148" y="20" width="4" height="4"/><rect x="132" y="24" width="4" height="4"/><rect x="140" y="24" width="4" height="4"/><rect x="148" y="24" width="4" height="4"/><rect x="132" y="28" width="4" height="4"/><rect x="140" y="28" width="4" height="4"/><rect x="148" y="28" width="4" height="4"/></g>
  <g class="char"></g>
  <g class="char"><rect x="172" y="4" width="4" height="4"/><rect x="188" y="4" width="4" height="4"/><rect x="172" y="8" width="4" height="4"/><rect x="184" y="8" width="4" height="4"/><rect x="172" y="12" width="4" height="4"/><rect x="180" y="12" width="4" height="4"/><rect x="172" y="16" width="4" height="4"/><rect x="176" y="16" width="4" height="4"/><rect x="172" y="20" width="4" height="4"/><rect x="180" y="20" width="4" height="4"/><rect x="172" y="24" width="4" height="4"/><rect x="184" y="24" width="4" height="4"/><rect x="172" y="28" width="4" height="4"/><rect x="188" y="28" width="4" height="4"/></g>
  <g class="char"><rect x="200" y="12" width="4" height="4"/><rect x="204" y="12" width="4" height="4"/><rect x="208" y="12" width="4" height="4"/><rect x="212" y="16" width="4" height="4"/><rect x="200" y="20" width="4" height="4"/><rect x="204" y="20" width="4" height="4"/><rect x="208" y="20" width="4" height="4"/><rect x="212" y="20" width="4" height="4"/><rect x="196" y="24" width="4" height="4"/><rect x="212" y="24" width="4" height="4"/><rect x="200" y="28" width="4" height="4"/><rect x="204" y="28" width="4" height="4"/><rect x="208" y="28" width="4" height="4"/><rect x="212" y="28" width="4" height="4"/></g>
  <g class="char"><rect x="220" y="12" width="4" height="4"/><rect x="224" y="12" width="4" height="4"/><rect x="228" y="12" width="4" height="4"/><rect x="232" y="12" width="4" height="4"/><rect x="236" y="12" width="4" height="4"/><rect x="232" y="16" width="4" height="4"/><rect x="228" y="20" width="4" height="4"/><rect x="224" y="24" width="4" height="4"/><rect x="220" y="28" width="4" height="4"/><rect x="224" y="28" width="4" height="4"/><rect x="228" y="28" width="4" height="4"/><rect x="232" y="28" width="4" height="4"/><rect x="236" y="28" width="4" height="4"/></g>
  <g class="char"><rect x="244" y="12" width="4" height="4"/><rect x="260" y="12" width="4" height="4"/><rect x="244" y="16" width="4" height="4"/><rect x="260" y="16" width="4" height="4"/><rect x="244" y="20" width="4" height="4"/><rect x="260" y="20" width="4" height="4"/><rect x="244" y="24" width="4" height="4"/><rect x="256" y="24" width="4" height="4"/><rect x="260" y="24" width="4" height="4"/><rect x="248" y="28" width="4" height="4"/><rect x="252" y="28" width="4" height="4"/><rect x="260" y="28" width="4" height="4"/></g>
  <g class="char"><rect x="268" y="4" width="4" height="4"/><rect x="268" y="8" width="4" height="4"/><rect x="268" y="12" width="4" height="4"/><rect x="276" y="12" width="4" height="4"/><rect x="280" y="12" width="4" height="4"/><rect x="268" y="16" width="4" height="4"/><rect x="272" y="16" width="4" height="4"/><rect x="284" y="16" width="4" height="4"/><rect x="268" y="20" width="4" height="4"/><rect x="284" y="20" width="4" height="4"/><rect x="268" y="24" width="4" height="4"/><rect x="284" y="24" width="4" height="4"/><rect x="268" y="28" width="4" height="4"/><rect x="284" y="28" width="4" height="4"/></g>
  <g class="char"><rect x="296" y="12" width="4" height="4"/><rect x="300" y="12" width="4" height="4"/><rect x="304" y="12" width="4" height="4"/><rect x="308" y="16" width="4" height="4"/><rect x="296" y="20" width="4" height="4"/><rect x="300" y="20" width="4" height="4"/><rect x="304" y="20" width="4" height="4"/><rect x="308" y="20" width="4" height="4"/><rect x="292" y="24" width="4" height="4"/><rect x="308" y="24" width="4" height="4"/><rect x="296" y="28" width="4" height="4"/><rect x="300" y="28" width="4" height="4"/><rect x="304" y="28" width="4" height="4"/><rect x="308" y="28" width="4" height="4"/></g>
</svg>
